{
    "asset" : {
        "generator" : "Khronos glTF Blender I/O v3.3.32",
        "version" : "2.0"
    },
    "scene" : 0,
    "scenes" : [
        {
            "name" : "Scene",
            "nodes" : [
                0,
                1,
                2,
                3,
                4,
                5,
                6
            ]
        }
    ],
    "nodes" : [
        {
            "mesh" : 0,
            "name" : "hua",
            "translation" : [
                0,
                6.151401996612549,
                0
            ]
        },
        {
            "mesh" : 1,
            "name" : "\u67f1\u4f53",
            "scale" : [
                0.08365259319543839,
                2.7296805381774902,
                0.09206327795982361
            ],
            "translation" : [
                0,
                2.753293037414551,
                0
            ]
        },
        {
            "mesh" : 2,
            "name" : "\u5e73\u9762",
            "rotation" : [
                -0.6407887935638428,
                0,
                0,
                0.7677172422409058
            ],
            "scale" : [
                0.2579420208930969,
                0.5448336601257324,
                1.7941945791244507
            ],
            "translation" : [
                0.01484040915966034,
                0.6040633916854858,
                0.0505068302154541
            ]
        },
        {
            "mesh" : 3,
            "name" : "\u5e73\u9762.001",
            "rotation" : [
                -0.4020810127258301,
                0.5977708697319031,
                0.49893999099731445,
                0.48172587156295776
            ],
            "scale" : [
                0.22715015709400177,
                0.47979411482810974,
                1.580012559890747
            ],
            "translation" : [
                0.01484040915966034,
                0.9602904915809631,
                0.0505068302154541
            ]
        },
        {
            "mesh" : 4,
            "name" : "\u5e73\u9762.002",
            "rotation" : [
                -0.11838366836309433,
                0.7545019388198853,
                0.6297582983970642,
                0.14183329045772552
            ],
            "scale" : [
                0.2303534597158432,
                0.48656022548675537,
                1.6022939682006836
            ],
            "translation" : [
                0.01484040915966034,
                0.6040633916854858,
                0.0505068302154541
            ]
        },
        {
            "mesh" : 5,
            "name" : "\u5e73\u9762.003",
            "rotation" : [
                -0.45130881667137146,
                -0.5450028777122498,
                -0.45489630103111267,
                0.5407047867774963
            ],
            "scale" : [
                0.21227484941482544,
                0.4483741223812103,
                1.4765428304672241
            ],
            "translation" : [
                0.01484040915966034,
                1.59757661819458,
                0.0505068302154541
            ]
        },
        {
            "mesh" : 6,
            "name" : "hua.001",
            "rotation" : [
                0,
                -0.16806560754776,
                0,
                0.9857758283615112
            ],
            "scale" : [
                0.9107352495193481,
                0.822203516960144,
                0.9107352495193481
            ],
            "translation" : [
                0,
                6.227863788604736,
                0
            ]
        }
    ],
    "meshes" : [
        {
            "name" : "\u7403\u4f53.001",
            "primitives" : [
                {
                    "attributes" : {
                        "POSITION" : 0,
                        "NORMAL" : 1,
                        "TEXCOORD_0" : 2
                    },
                    "indices" : 3
                }
            ]
        },
        {
            "name" : "\u67f1\u4f53",
            "primitives" : [
                {
                    "attributes" : {
                        "POSITION" : 4,
                        "NORMAL" : 5,
                        "TEXCOORD_0" : 6
                    },
                    "indices" : 7
                }
            ]
        },
        {
            "name" : "\u5e73\u9762",
            "primitives" : [
                {
                    "attributes" : {
                        "POSITION" : 8,
                        "NORMAL" : 9,
                        "TEXCOORD_0" : 10
                    },
                    "indices" : 11
                }
            ]
        },
        {
            "name" : "\u5e73\u9762.001",
            "primitives" : [
                {
                    "attributes" : {
                        "POSITION" : 12,
                        "NORMAL" : 13,
                        "TEXCOORD_0" : 14
                    },
                    "indices" : 11
                }
            ]
        },
        {
            "name" : "\u5e73\u9762.002",
            "primitives" : [
                {
                    "attributes" : {
                        "POSITION" : 15,
                        "NORMAL" : 16,
                        "TEXCOORD_0" : 17
                    },
                    "indices" : 11
                }
            ]
        },
        {
            "name" : "\u5e73\u9762.003",
            "primitives" : [
                {
                    "attributes" : {
                        "POSITION" : 18,
                        "NORMAL" : 19,
                        "TEXCOORD_0" : 20
                    },
                    "indices" : 11
                }
            ]
        },
        {
            "name" : "\u7403\u4f53.002",
            "primitives" : [
                {
                    "attributes" : {
                        "POSITION" : 21,
                        "NORMAL" : 22,
                        "TEXCOORD_0" : 23
                    },
                    "indices" : 3
                }
            ]
        }
    ],
    "accessors" : [
        {
            "bufferView" : 0,
            "componentType" : 5126,
            "count" : 2752,
            "max" : [
                0.5408177971839905,
                0.47447147965431213,
                0.5449596047401428
            ],
            "min" : [
                -0.5409212708473206,
                -0.7567175626754761,
                -0.5449169278144836
            ],
            "type" : "VEC3"
        },
        {
            "bufferView" : 1,
            "componentType" : 5126,
            "count" : 2752,
            "type" : "VEC3"
        },
        {
            "bufferView" : 2,
            "componentType" : 5126,
            "count" : 2752,
            "type" : "VEC2"
        },
        {
            "bufferView" : 3,
            "componentType" : 5123,
            "count" : 4032,
            "type" : "SCALAR"
        },
        {
            "bufferView" : 4,
            "componentType" : 5126,
            "count" : 704,
            "max" : [
                1.808027744293213,
                0.9831722974777222,
                1.8156980276107788
            ],
            "min" : [
                -1.808027744293213,
                -1,
                -1.8156980276107788
            ],
            "type" : "VEC3"
        },
        {
            "bufferView" : 5,
            "componentType" : 5126,
            "count" : 704,
            "type" : "VEC3"
        },
        {
            "bufferView" : 6,
            "componentType" : 5126,
            "count" : 704,
            "type" : "VEC2"
        },
        {
            "bufferView" : 7,
            "componentType" : 5123,
            "count" : 1140,
            "type" : "SCALAR"
        },
        {
            "bufferView" : 8,
            "componentType" : 5126,
            "count" : 32,
            "max" : [
                1,
                0.11593767255544662,
                2.227750301361084
            ],
            "min" : [
                -1,
                -0.9145323038101196,
                -0.014101032167673111
            ],
            "type" : "VEC3"
        },
        {
            "bufferView" : 9,
            "componentType" : 5126,
            "count" : 32,
            "type" : "VEC3"
        },
        {
            "bufferView" : 10,
            "componentType" : 5126,
            "count" : 32,
            "type" : "VEC2"
        },
        {
            "bufferView" : 11,
            "componentType" : 5123,
            "count" : 48,
            "type" : "SCALAR"
        },
        {
            "bufferView" : 12,
            "componentType" : 5126,
            "count" : 32,
            "max" : [
                1,
                0.11593767255544662,
                2.227750301361084
            ],
            "min" : [
                -1,
                -0.9145323038101196,
                -0.014101032167673111
            ],
            "type" : "VEC3"
        },
        {
            "bufferView" : 13,
            "componentType" : 5126,
            "count" : 32,
            "type" : "VEC3"
        },
        {
            "bufferView" : 14,
            "componentType" : 5126,
            "count" : 32,
            "type" : "VEC2"
        },
        {
            "bufferView" : 15,
            "componentType" : 5126,
            "count" : 32,
            "max" : [
                1,
                0.11593767255544662,
                2.227750301361084
            ],
            "min" : [
                -1,
                -0.9145323038101196,
                -0.014101032167673111
            ],
            "type" : "VEC3"
        },
        {
            "bufferView" : 16,
            "componentType" : 5126,
            "count" : 32,
            "type" : "VEC3"
        },
        {
            "bufferView" : 17,
            "componentType" : 5126,
            "count" : 32,
            "type" : "VEC2"
        },
        {
            "bufferView" : 18,
            "componentType" : 5126,
            "count" : 32,
            "max" : [
                1,
                0.11593767255544662,
                2.227750301361084
            ],
            "min" : [
                -1,
                -0.9145323038101196,
                -0.014101032167673111
            ],
            "type" : "VEC3"
        },
        {
            "bufferView" : 19,
            "componentType" : 5126,
            "count" : 32,
            "type" : "VEC3"
        },
        {
            "bufferView" : 20,
            "componentType" : 5126,
            "count" : 32,
            "type" : "VEC2"
        },
        {
            "bufferView" : 21,
            "componentType" : 5126,
            "count" : 2752,
            "max" : [
                0.5408177971839905,
                0.47447147965431213,
                0.5449596047401428
            ],
            "min" : [
                -0.5409212708473206,
                -0.7567175626754761,
                -0.5449169278144836
            ],
            "type" : "VEC3"
        },
        {
            "bufferView" : 22,
            "componentType" : 5126,
            "count" : 2752,
            "type" : "VEC3"
        },
        {
            "bufferView" : 23,
            "componentType" : 5126,
            "count" : 2752,
            "type" : "VEC2"
        }
    ],
    "bufferViews" : [
        {
            "buffer" : 0,
            "byteLength" : 33024,
            "byteOffset" : 0,
            "target" : 34962
        },
        {
            "buffer" : 0,
            "byteLength" : 33024,
            "byteOffset" : 33024,
            "target" : 34962
        },
        {
            "buffer" : 0,
            "byteLength" : 22016,
            "byteOffset" : 66048,
            "target" : 34962
        },
        {
            "buffer" : 0,
            "byteLength" : 8064,
            "byteOffset" : 88064,
            "target" : 34963
        },
        {
            "buffer" : 0,
            "byteLength" : 8448,
            "byteOffset" : 96128,
            "target" : 34962
        },
        {
            "buffer" : 0,
            "byteLength" : 8448,
            "byteOffset" : 104576,
            "target" : 34962
        },
        {
            "buffer" : 0,
            "byteLength" : 5632,
            "byteOffset" : 113024,
            "target" : 34962
        },
        {
            "buffer" : 0,
            "byteLength" : 2280,
            "byteOffset" : 118656,
            "target" : 34963
        },
        {
            "buffer" : 0,
            "byteLength" : 384,
            "byteOffset" : 120936,
            "target" : 34962
        },
        {
            "buffer" : 0,
            "byteLength" : 384,
            "byteOffset" : 121320,
            "target" : 34962
        },
        {
            "buffer" : 0,
            "byteLength" : 256,
            "byteOffset" : 121704,
            "target" : 34962
        },
        {
            "buffer" : 0,
            "byteLength" : 96,
            "byteOffset" : 121960,
            "target" : 34963
        },
        {
            "buffer" : 0,
            "byteLength" : 384,
            "byteOffset" : 122056,
            "target" : 34962
        },
        {
            "buffer" : 0,
            "byteLength" : 384,
            "byteOffset" : 122440,
            "target" : 34962
        },
        {
            "buffer" : 0,
            "byteLength" : 256,
            "byteOffset" : 122824,
            "target" : 34962
        },
        {
            "buffer" : 0,
            "byteLength" : 384,
            "byteOffset" : 123080,
            "target" : 34962
        },
        {
            "buffer" : 0,
            "byteLength" : 384,
            "byteOffset" : 123464,
            "target" : 34962
        },
        {
            "buffer" : 0,
            "byteLength" : 256,
            "byteOffset" : 123848,
            "target" : 34962
        },
        {
            "buffer" : 0,
            "byteLength" : 384,
            "byteOffset" : 124104,
            "target" : 34962
        },
        {
            "buffer" : 0,
            "byteLength" : 384,
            "byteOffset" : 124488,
            "target" : 34962
        },
        {
            "buffer" : 0,
            "byteLength" : 256,
            "byteOffset" : 124872,
            "target" : 34962
        },
        {
            "buffer" : 0,
            "byteLength" : 33024,
            "byteOffset" : 125128,
            "target" : 34962
        },
        {
            "buffer" : 0,
            "byteLength" : 33024,
            "byteOffset" : 158152,
            "target" : 34962
        },
        {
            "buffer" : 0,
            "byteLength" : 22016,
            "byteOffset" : 191176,
            "target" : 34962
        }
    ],
    "buffers" : [
        {
            "byteLength" : 213192,
            "uri" : "data:application/octet-stream;base64,"
        }
    ]
}
